ffmpeg started on 2016-11-23 at 19:25:14
Report written to "Output/NVENCh264/results/ffmpeg/crowd_run_2160p50fast5000k.log"
Command line:
Tools/ffmpeg/ffmpeg -benchmark -y -i Input/y4m/crowd_run_2160p50.y4m -c:v h264_nvenc -preset fast -b:v 5000k -an Output/NVENCh264/encoded/crowd_run_2160p50fast5000k.mkv
ffmpeg version N-82227-gdb23fde Copyright (c) 2000-2016 the FFmpeg developers
  built with gcc 5.4.0 (Ubuntu 5.4.0-6ubuntu1~16.04.2) 20160609
  configuration: --prefix=/home/jaroslav/ffmpeg_build --pkg-config-flags=--static --extra-cflags=-I/home/jaroslav/ffmpeg_build/include --extra-ldflags=-L/home/jaroslav/ffmpeg_build/lib --bindir=/home/jaroslav/bin --enable-gpl --enable-libass --enable-libfdk-aac --enable-libfreetype --enable-libmp3lame --enable-libopus --enable-libtheora --enable-libvorbis --enable-libvpx --enable-libx264 --enable-libx265 --enable-nvenc --enable-libmfx --enable-libxvid --enable-libgsm --enable-libopencore-amrnb --enable-version3 --enable-nonfree
  libavutil      55. 35.100 / 55. 35.100
  libavcodec     57. 66.101 / 57. 66.101
  libavformat    57. 57.100 / 57. 57.100
  libavdevice    57.  2.100 / 57.  2.100
  libavfilter     6. 66.100 /  6. 66.100
  libswscale      4.  3.100 /  4.  3.100
  libswresample   2.  4.100 /  2.  4.100
  libpostproc    54.  2.100 / 54.  2.100
Input #0, yuv4mpegpipe, from 'Input/y4m/crowd_run_2160p50.y4m':
  Duration: 00:00:10.00, start: 0.000000, bitrate: 4976642 kb/s
    Stream #0:0: Video: rawvideo (I420 / 0x30323449), yuv420p(progressive), 3840x2160, SAR 1:1 DAR 16:9, 50 fps, 50 tbr, 50 tbn, 50 tbc
Output #0, matroska, to 'Output/NVENCh264/encoded/crowd_run_2160p50fast5000k.mkv':
  Metadata:
    encoder         : Lavf57.57.100
    Stream #0:0: Video: h264 (h264_nvenc) (Main) (H264 / 0x34363248), yuv420p, 3840x2160 [SAR 1:1 DAR 16:9], q=-1--1, 5000 kb/s, 50 fps, 1k tbn, 50 tbc
    Metadata:
      encoder         : Lavc57.66.101 h264_nvenc
    Side data:
      cpb: bitrate max/min/avg: 0/0/5000000 buffer size: 10000000 vbv_delay: -1
Stream mapping:
  Stream #0:0 -> #0:0 (rawvideo (native) -> h264 (h264_nvenc))
Press [q] to stop, [?] for help
frame=   16 fps=0.0 q=0.0 size=       0kB time=00:00:00.00 bitrate=N/A speed=   0x    frame=   34 fps= 33 q=49.0 size=       1kB time=00:00:00.06 bitrate=  96.1kbits/s speed=0.0587x    frame=   46 fps=9.4 q=49.0 size=       1kB time=00:00:00.30 bitrate=  19.5kbits/s speed=0.0614x    frame=   47 fps=5.9 q=49.0 size=       1kB time=00:00:00.32 bitrate=  18.3kbits/s speed=0.0402x    frame=   48 fps=4.8 q=49.0 size=       1kB time=00:00:00.34 bitrate=  17.2kbits/s speed=0.0341x    frame=   65 fps=6.2 q=49.0 size=       1kB time=00:00:00.68 bitrate=   8.6kbits/s speed=0.0648x    frame=   83 fps=7.5 q=49.0 size=       1kB time=00:00:01.04 bitrate=   5.6kbits/s speed=0.0944x    frame=  101 fps=8.7 q=49.0 size=       1kB time=00:00:01.40 bitrate=   4.2kbits/s speed=0.121x    frame=  119 fps=9.8 q=49.0 size=       1kB time=00:00:01.76 bitrate=   3.3kbits/s speed=0.146x    frame=  137 fps= 11 q=49.0 size=       1kB time=00:00:02.12 bitrate=   2.8kbits/s speed=0.168x    frame=  155 fps= 12 q=49.0 size=       1kB time=00:00:02.48 bitrate=   2.4kbits/s speed=0.189x    frame=  172 fps= 13 q=49.0 size=       1kB time=00:00:02.82 bitrate=   2.1kbits/s speed=0.207x    frame=  189 fps= 13 q=49.0 size=       1kB time=00:00:03.16 bitrate=   1.9kbits/s speed=0.224x    frame=  206 fps= 14 q=49.0 size=       1kB time=00:00:03.50 bitrate=   1.7kbits/s speed=0.239x    frame=  223 fps= 15 q=49.0 size=       1kB time=00:00:03.84 bitrate=   1.5kbits/s speed=0.254x    frame=  241 fps= 15 q=49.0 size=       1kB time=00:00:04.20 bitrate=   1.4kbits/s speed=0.268x    frame=  259 fps= 16 q=49.0 size=       1kB time=00:00:04.56 bitrate=   1.3kbits/s speed=0.282x    frame=  277 fps= 17 q=49.0 size=       1kB time=00:00:04.92 bitrate=   1.2kbits/s speed=0.294x    frame=  294 fps= 17 q=49.0 size=    3938kB time=00:00:05.26 bitrate=6131.8kbits/s speed=0.305x    frame=  312 fps= 18 q=49.0 size=    3938kB time=00:00:05.62 bitrate=5739.1kbits/s speed=0.317x    frame=  330 fps= 18 q=49.0 size=    3938kB time=00:00:05.98 bitrate=5393.6kbits/s speed=0.328x    frame=  348 fps= 19 q=49.0 size=    3938kB time=00:00:06.34 bitrate=5087.4kbits/s speed=0.338x    frame=  366 fps= 19 q=49.0 size=    3938kB time=00:00:06.70 bitrate=4814.1kbits/s speed=0.347x    frame=  384 fps= 19 q=49.0 size=    3938kB time=00:00:07.06 bitrate=4568.7kbits/s speed=0.356x    frame=  402 fps= 20 q=49.0 size=    3938kB time=00:00:07.42 bitrate=4347.0kbits/s speed=0.365x    frame=  420 fps= 20 q=49.0 size=    3938kB time=00:00:07.78 bitrate=4145.9kbits/s speed=0.373x    frame=  438 fps= 21 q=49.0 size=    3938kB time=00:00:08.14 bitrate=3962.6kbits/s speed=0.381x    frame=  456 fps= 21 q=49.0 size=    3938kB time=00:00:08.50 bitrate=3794.8kbits/s speed=0.389x    frame=  474 fps= 21 q=49.0 size=    3938kB time=00:00:08.86 bitrate=3640.6kbits/s speed=0.396x    frame=  492 fps= 21 q=49.0 size=    3938kB time=00:00:09.22 bitrate=3498.5kbits/s speed=0.403x    frame=  500 fps= 22 q=49.0 Lsize=    8120kB time=00:00:09.98 bitrate=6664.9kbits/s speed=0.431x    
video:8116kB audio:0kB subtitle:0kB other streams:0kB global headers:0kB muxing overhead: 0.054749%
bench: utime=1.024s
bench: maxrss=977204kB
